<?xml version="1.0" encoding="utf-8"?>
<!-- Generator: Adobe Illustrator 23.0.3, SVG Export Plug-In . SVG Version: 6.00 Build 0)  -->
<svg version="1.1" id="Layer_1" xmlns="http://www.w3.org/2000/svg" xmlns:xlink="http://www.w3.org/1999/xlink" x="0px" y="0px"
	 width="152px" height="31px" viewBox="0 0 152 31" style="enable-background:new 0 0 152 31;" xml:space="preserve">
<style type="text/css">
	.st0{fill:#FBAB1D;}
	.st1{fill:#FFFFFF;fill-opacity:0.66;}
</style>
<g>
	<path class="st0" d="M36,8c0,0.3-0.2,0.5-0.5,0.5h-5.9c-0.3,0-0.5,0.2-0.5,0.5v3c0,0.3,0.2,0.5,0.5,0.5H35c0.3,0,0.5,0.2,0.5,0.5
		v3.1c0,0.3-0.2,0.5-0.5,0.5h-5.4c-0.3,0-0.5,0.2-0.5,0.5v7.7c0,0.3-0.2,0.5-0.5,0.5h-3.9c-0.3,0-0.5-0.2-0.5-0.5V5
		c0-0.3,0.2-0.5,0.5-0.5h10.8C35.8,4.5,36,4.7,36,5L36,8L36,8z"/>
	<path class="st0" d="M50.7,11.8c0-0.2,0.2-0.4,0.5-0.4h3.6c0.3,0,0.5,0.2,0.5,0.5v12.9c0,0.3-0.2,0.5-0.5,0.5h-3.7
		c-0.2,0-0.4-0.2-0.4-0.4c0-0.2-0.1-0.3-0.3-0.4c-0.2-0.1-0.4,0-0.5,0.1c-1.3,1.2-2.9,1.2-3.4,1.2c-2,0-3.8-0.5-5.3-2.1
		c-1.5-1.6-2.1-3.4-2.1-5.2c0-2.3,0.9-4.3,2.2-5.6c1.2-1.2,3-1.9,4.9-1.9c1.9,0,3.1,0.7,3.7,1.2c0.1,0.1,0.3,0.1,0.5,0.1
		C50.6,12.1,50.7,12,50.7,11.8z M44.9,15.7c-0.5,0.5-1.1,1.3-1.1,2.5c0,1.2,0.5,2.1,1,2.5c0.6,0.7,1.6,1.1,2.7,1.1
		c0.9,0,1.8-0.4,2.4-1c0.6-0.6,1.1-1.4,1.1-2.6c0-1-0.4-1.9-1.1-2.6c-0.7-0.7-1.7-1-2.5-1C46.4,14.8,45.5,15.2,44.9,15.7z"/>
	<path class="st0" d="M70.7,14.8c0,0.2-0.1,0.3-0.2,0.4c-0.1,0.1-0.3,0.1-0.5,0c-1-0.5-1.9-0.6-2.3-0.6c-1.4,0-2.3,0.7-2.6,1
		c-0.6,0.6-1.1,1.5-1.1,2.6c0,1,0.4,1.9,1,2.5c0.7,0.7,1.7,1.1,2.8,1.1c0.7,0,1.5-0.2,2.2-0.6c0.1-0.1,0.3-0.1,0.5,0
		c0.1,0.1,0.3,0.2,0.3,0.4v2.8c0,0.2-0.1,0.4-0.3,0.4c-1.1,0.5-2.2,0.7-3.4,0.7c-2.4,0-4.2-0.8-5.5-2.1c-1.1-1-2.2-2.8-2.2-5.3
		c0-2.4,1-4.2,2.4-5.5c1.6-1.5,3.5-2,5.4-2c1.1,0,2.2,0.2,3.3,0.6c0.2,0.1,0.3,0.2,0.3,0.4C70.7,12.4,70.7,13.1,70.7,14.8z"/>
	<path class="st0" d="M80.7,15c-0.3,0-0.5,0.2-0.5,0.5v9.3c0,0.3-0.2,0.5-0.5,0.5h-3.6c-0.3,0-0.5-0.2-0.5-0.5v-9.3
		c0-0.3-0.2-0.5-0.5-0.5h-0.6c-0.3,0-0.5-0.2-0.5-0.5v-2.6c0-0.3,0.2-0.5,0.5-0.5h0.6c0.3,0,0.5-0.2,0.5-0.5V7.4
		c0-0.3,0.2-0.5,0.5-0.5h3.6c0.3,0,0.5,0.2,0.5,0.5v3.5c0,0.3,0.2,0.5,0.5,0.5h1.8c0.3,0,0.5,0.2,0.5,0.5v2.6c0,0.3-0.2,0.5-0.5,0.5
		L80.7,15L80.7,15z"/>
	<path class="st0" d="M97.2,11.8c0-0.2,0.2-0.4,0.5-0.4h3.6c0.3,0,0.5,0.2,0.5,0.5v12.9c0,0.3-0.2,0.5-0.5,0.5h-3.6
		c-0.3,0-0.5-0.2-0.5-0.5v0c0-0.2-0.1-0.3-0.3-0.4c-0.2-0.1-0.3,0-0.5,0.1c-1.3,1.2-2.9,1.3-3.5,1.3c-2,0-3.8-0.5-5.3-2.1
		c-1.5-1.6-2.1-3.4-2.1-5.2c0-2.3,0.9-4.3,2.2-5.6c1.2-1.2,3-1.9,4.9-1.9c1.9,0,3.1,0.7,3.7,1.2c0.1,0.1,0.3,0.1,0.5,0.1
		C97.1,12.1,97.2,12,97.2,11.8z M91.3,15.7c-0.5,0.5-1.1,1.3-1.1,2.5s0.5,2.1,1,2.5c0.6,0.7,1.6,1.1,2.7,1.1c0.9,0,1.8-0.4,2.4-1
		c0.6-0.6,1.1-1.4,1.1-2.6c0-1-0.4-1.9-1.1-2.6c-0.7-0.7-1.7-1-2.5-1C92.9,14.8,92,15.2,91.3,15.7z"/>
	<path class="st0" d="M110.7,2.5c0.3,0,0.5,0.2,0.5,0.5v8.7c0,0.2,0.1,0.4,0.3,0.4c0.2,0.1,0.4,0.1,0.5-0.1c0.7-0.6,1.9-1.2,3.6-1.2
		c1.9,0,3.7,0.7,4.9,1.9c1.4,1.3,2.2,3.2,2.2,5.5c0,2.1-0.8,4.1-2.2,5.6c-1.2,1.2-2.8,1.9-4.9,1.9c-1.8,0-3-0.6-3.7-1.3
		c-0.1-0.1-0.3-0.1-0.5-0.1c-0.2,0.1-0.3,0.2-0.3,0.4v0c0,0.3-0.2,0.5-0.5,0.5h-3.6c-0.3,0-0.5-0.2-0.5-0.5V3c0-0.3,0.2-0.5,0.5-0.5
		L110.7,2.5L110.7,2.5z M112,15.8c-0.5,0.6-1,1.4-1,2.6c0,1.2,0.5,2,1.1,2.5c0.7,0.7,1.7,1,2.6,1c0.8,0,1.7-0.3,2.4-1
		c0.7-0.6,1.1-1.5,1.1-2.6c0-1.1-0.5-2-1.1-2.6c-0.7-0.7-1.5-0.9-2.5-0.9C113.6,14.8,112.7,15,112,15.8z"/>
	<path class="st0" d="M131.1,2.5c0.3,0,0.5,0.2,0.5,0.5v21.7c0,0.3-0.2,0.5-0.5,0.5h-3.6c-0.3,0-0.5-0.2-0.5-0.5V3
		c0-0.3,0.2-0.5,0.5-0.5L131.1,2.5L131.1,2.5z"/>
	<path class="st0" d="M151,19.1h-10.1c-0.1,0-0.3,0.1-0.4,0.2c-0.1,0.1-0.1,0.2-0.1,0.4l0.1,1c0,0.1,0.1,0.2,0.1,0.2l0.5,0.6
		c0.7,0.7,1.7,0.9,2.4,0.9c0.7,0,1.4-0.1,1.9-0.4c0.1,0,0.5-0.3,0.8-0.9c0.1-0.2,0.3-0.2,0.5-0.2l3.4,0.3c0.2,0,0.3,0.1,0.4,0.2
		c0.1,0.1,0.1,0.3,0,0.4c-0.7,1.6-1.8,2.4-2.5,2.9c-1.4,0.8-2.9,1-4.5,1c-2.1,0-4-0.4-5.7-2c-1.2-1.2-2.1-3.1-2.1-5.4
		c0-2,0.7-4,2.2-5.5c1.7-1.7,3.9-2,5.5-2c1.6,0,3.9,0.3,5.6,2.1c1.7,1.7,2,3.9,2,5.6L151,19.1L151,19.1z M146.1,16.4
		c0.2,0,0.3-0.1,0.4-0.2c0.1-0.1,0.1-0.3,0-0.5c-0.1-0.3-0.4-0.6-0.7-0.9c-0.5-0.5-1.2-0.8-2.2-0.8c-1.2,0-1.9,0.5-2.3,0.9
		c-0.2,0.2-0.4,0.5-0.6,0.8c-0.1,0.1-0.1,0.3,0,0.5c0.1,0.1,0.3,0.2,0.4,0.2C141.9,16.4,143.3,16.4,146.1,16.4z"/>
</g>
<g>
	<path class="st0" d="M5.1,9C4.5,9.3,3.7,9.4,3,9.1L2,8.7C1.9,8.7,1.8,8.6,1.8,8.4c0-0.1,0.1-0.2,0.2-0.3l11.8-6
		c0.1-0.1,0.2-0.2,0.2-0.3V1.2c0-0.1-0.1-0.2-0.1-0.3c-0.1-0.1-0.2-0.1-0.3,0L0.8,7.5C0.3,7.8,0,8.3,0,8.8v19.3c0,1,0.6,1.9,1.5,2.2
		l0.9,0.4c1.5,0.6,2.8,0,3.2-0.2c0,0,3.3-1.6,11.8-6c0.4-0.2,0.6-0.6,0.6-1c0-1.5,0-6.1,0-20.5c0-0.1-0.1-0.2-0.2-0.3
		c-0.1-0.1-0.2-0.1-0.3,0L5.1,9z"/>
	<path class="st1" d="M11.1,20.8c1.2-0.6,2.1-0.2,2.1,1c0,1.2-0.9,2.5-2.1,3.1c-1.2,0.6-2.1,0.2-2.1-1S10,21.4,11.1,20.8z M10.2,20
		c-0.2,0.1-0.4,0.1-0.6,0c-0.2-0.1-0.3-0.3-0.3-0.5v-9.3c0-0.4,0.2-0.8,0.6-1L12.1,8c0.2-0.1,0.4-0.1,0.6,0C12.9,8.2,13,8.3,13,8.5
		V18c0,0.4-0.2,0.7-0.5,0.9L10.2,20z"/>
	<path class="st0" d="M2.6,8.4C2.6,8.4,2.6,8.4,2.6,8.4l11.6-5.8c0,0,0.1-0.1,0-0.1c0,0-0.1-0.1-0.1-0.1c0,0,0,0,0,0L2.6,8.3
		C2.5,8.3,2.5,8.3,2.6,8.4C2.5,8.4,2.6,8.4,2.6,8.4z"/>
	<path class="st0" d="M14.9,2.8C14.9,2.8,14.8,2.8,14.9,2.8c-0.1-0.1-0.1-0.1-0.1,0L3.2,8.6c0,0-0.1,0.1,0,0.1c0,0,0.1,0.1,0.1,0.1
		c0,0,0,0,0,0l11.6-5.8C14.9,2.9,14.9,2.9,14.9,2.8z"/>
	<path class="st0" d="M4,9C4,9,4,9,4,9l11.6-5.8c0,0,0.1-0.1,0-0.1c0,0-0.1-0.1-0.1-0.1c0,0,0,0,0,0L3.9,8.8C3.9,8.9,3.9,8.9,4,9
		C3.9,9,3.9,9,4,9z"/>
</g>
</svg>
