<?xml version="1.0" encoding="utf-8"?>
<!-- Generator: Adobe Illustrator 23.0.3, SVG Export Plug-In . SVG Version: 6.00 Build 0)  -->
<svg version="1.1" id="Layer_1" xmlns="http://www.w3.org/2000/svg" xmlns:xlink="http://www.w3.org/1999/xlink" x="0px" y="0px"
	 width="237px" height="47px" viewBox="0 0 237 47" style="enable-background:new 0 0 237 47;" xml:space="preserve">
<style type="text/css">
	.st0{fill:#FFFFFF;}
</style>
<path class="st0" d="M56.3,11.2c0,0.4-0.3,0.8-0.8,0.8h-9.2c-0.4,0-0.8,0.3-0.8,0.8v4.8c0,0.4,0.3,0.8,0.8,0.8h8.4
	c0.4,0,0.8,0.3,0.8,0.8v4.8c0,0.4-0.3,0.8-0.8,0.8h-8.4c-0.4,0-0.8,0.3-0.8,0.8v12c0,0.4-0.3,0.8-0.8,0.8h-6.1
	c-0.4,0-0.8-0.3-0.8-0.8V6.3c0-0.4,0.3-0.8,0.8-0.8h16.9c0.4,0,0.8,0.3,0.8,0.8L56.3,11.2L56.3,11.2z"/>
<path class="st0" d="M79.4,17c0-0.4,0.3-0.7,0.7-0.7h5.7c0.4,0,0.8,0.3,0.8,0.8v20.2c0,0.4-0.3,0.8-0.8,0.8h-5.7
	c-0.4,0-0.7-0.3-0.7-0.7c0-0.3-0.2-0.5-0.4-0.6c-0.3-0.1-0.6-0.1-0.8,0.1c-2,1.8-4.5,1.9-5.4,1.9c-3.2,0-5.9-0.8-8.3-3.3
	c-2.3-2.4-3.2-5.3-3.2-8.1c0-3.7,1.4-6.8,3.4-8.8c1.9-1.9,4.6-3,7.7-3c2.9,0,4.8,1,5.8,1.9c0.2,0.2,0.5,0.2,0.7,0.1
	C79.3,17.5,79.4,17.3,79.4,17z M70.3,23.2c-0.7,0.7-1.7,2-1.7,3.9c0,1.9,0.9,3.2,1.5,3.9c1,1,2.5,1.7,4.2,1.7c1.5,0,2.8-0.6,3.8-1.5
	c0.9-0.9,1.7-2.3,1.7-4.1c0-1.6-0.6-3-1.7-4c-1.1-1-2.7-1.5-4-1.5C72.7,21.7,71.2,22.3,70.3,23.2z"/>
<path class="st0" d="M110.8,21.8c0,0.3-0.1,0.5-0.4,0.7c-0.2,0.1-0.5,0.1-0.8,0c-1.5-0.8-3-0.9-3.5-0.9c-2.2,0-3.6,1.1-4.1,1.6
	c-0.9,0.9-1.7,2.3-1.7,4.1c0,1.6,0.6,3,1.5,3.9c1.1,1.2,2.7,1.8,4.4,1.8c1.1,0,2.3-0.3,3.4-0.9c0.2-0.1,0.5-0.1,0.8,0
	c0.2,0.1,0.4,0.4,0.4,0.7V37c0,0.3-0.2,0.6-0.4,0.7c-1.7,0.8-3.4,1.1-5.3,1.1c-3.8,0-6.6-1.3-8.6-3.3c-1.7-1.6-3.5-4.3-3.5-8.3
	c0-3.7,1.6-6.6,3.7-8.6c2.5-2.3,5.4-3.1,8.5-3.1c1.8,0,3.4,0.3,5.2,1c0.3,0.1,0.5,0.4,0.5,0.7C110.8,17.9,110.8,19.1,110.8,21.8z"/>
<path class="st0" d="M126.5,22c-0.4,0-0.8,0.3-0.8,0.8v14.6c0,0.4-0.3,0.8-0.8,0.8h-5.6c-0.4,0-0.8-0.3-0.8-0.8V22.7
	c0-0.4-0.3-0.8-0.8-0.8h-1c-0.4,0-0.8-0.3-0.8-0.8v-4.1c0-0.4,0.3-0.8,0.8-0.8h0.9c0.4,0,0.8-0.3,0.8-0.8v-5.5
	c0-0.4,0.3-0.8,0.8-0.8h5.6c0.4,0,0.8,0.3,0.8,0.8v5.5c0,0.4,0.3,0.8,0.8,0.8h2.9c0.4,0,0.8,0.3,0.8,0.8v4.1c0,0.4-0.3,0.8-0.8,0.8
	L126.5,22L126.5,22z"/>
<path class="st0" d="M152.3,17c0-0.4,0.3-0.7,0.7-0.7h5.7c0.4,0,0.8,0.3,0.8,0.8v20.2c0,0.4-0.3,0.8-0.8,0.8H153
	c-0.4,0-0.7-0.3-0.7-0.7v-0.1c0-0.3-0.2-0.5-0.4-0.6c-0.3-0.1-0.5-0.1-0.7,0.1c-2,1.9-4.5,2-5.4,2c-3.2,0-5.9-0.8-8.3-3.3
	c-2.3-2.4-3.2-5.3-3.2-8.1c0-3.7,1.4-6.8,3.4-8.8c1.9-1.9,4.6-3,7.7-3c2.9,0,4.8,1,5.8,1.9c0.2,0.2,0.5,0.2,0.7,0.1
	C152.1,17.5,152.3,17.3,152.3,17z M143.1,23.2c-0.7,0.7-1.7,2-1.7,3.9s0.9,3.2,1.5,3.9c1,1,2.5,1.7,4.2,1.7c1.5,0,2.8-0.6,3.8-1.5
	c0.9-0.9,1.7-2.3,1.7-4.1c0-1.6-0.6-3-1.7-4c-1.1-1-2.7-1.5-4-1.5C145.5,21.7,144.1,22.3,143.1,23.2z"/>
<path class="st0" d="M173.5,2.5c0.4,0,0.8,0.3,0.8,0.8v13.6c0,0.3,0.2,0.6,0.5,0.7c0.3,0.1,0.6,0.1,0.8-0.1c1.1-0.9,2.9-1.8,5.7-1.8
	c3,0,5.8,1.1,7.7,2.9c2.1,2,3.5,5,3.5,8.6c0,3.4-1.2,6.5-3.5,8.7c-1.9,1.9-4.4,3-7.6,3c-2.8,0-4.7-0.9-5.9-2
	c-0.2-0.2-0.5-0.2-0.7-0.1c-0.3,0.1-0.4,0.4-0.4,0.6v0.1c0,0.4-0.3,0.8-0.8,0.8h-5.6c-0.4,0-0.8-0.3-0.8-0.8v-34
	c0-0.4,0.3-0.8,0.8-0.8L173.5,2.5L173.5,2.5z M175.4,23.3c-0.9,0.9-1.6,2.1-1.6,4c0,1.8,0.8,3.1,1.7,3.9c1.1,1.1,2.7,1.6,4.1,1.6
	c1.3,0,2.6-0.5,3.8-1.5c1.1-1,1.7-2.4,1.7-4c0-1.8-0.7-3.2-1.7-4.1c-1.1-1.1-2.4-1.5-3.8-1.5C177.9,21.7,176.6,22.1,175.4,23.3z"/>
<path class="st0" d="M205.4,2.5c0.4,0,0.8,0.3,0.8,0.8v34c0,0.4-0.3,0.8-0.8,0.8h-5.6c-0.4,0-0.8-0.3-0.8-0.8v-34
	c0-0.4,0.3-0.8,0.8-0.8L205.4,2.5L205.4,2.5z"/>
<path class="st0" d="M236.6,28.4h-15.8c-0.2,0-0.5,0.1-0.6,0.3c-0.1,0.2-0.2,0.4-0.2,0.6l0.2,1.5c0,0.1,0.1,0.3,0.2,0.4l0.9,0.9
	c1.1,1.2,2.6,1.4,3.7,1.4c1.1,0,2.1-0.2,2.9-0.6c0.1-0.1,0.7-0.5,1.3-1.4c0.1-0.3,0.5-0.4,0.7-0.4l5.3,0.5c0.3,0,0.5,0.2,0.6,0.4
	c0.1,0.2,0.1,0.5,0.1,0.7c-1.1,2.4-2.8,3.8-3.9,4.5c-2.1,1.3-4.6,1.6-7,1.6c-3.3,0-6.3-0.6-8.9-3.1c-1.9-1.9-3.3-4.8-3.3-8.4
	c0-3.1,1.1-6.3,3.4-8.6c2.7-2.6,6-3.1,8.5-3.1c2.5,0,6.1,0.4,8.8,3.3c2.6,2.7,3.1,6.1,3.1,8.8L236.6,28.4L236.6,28.4z M228.9,24.2
	c0.3,0,0.5-0.1,0.7-0.4c0.1-0.2,0.2-0.5,0.1-0.7c-0.2-0.5-0.6-1-1.1-1.4c-0.8-0.7-1.9-1.2-3.4-1.2c-1.9,0-2.9,0.7-3.6,1.4
	c-0.3,0.3-0.6,0.8-0.9,1.3c-0.1,0.2-0.1,0.5,0.1,0.7c0.1,0.2,0.4,0.4,0.7,0.4C222.4,24.2,224.6,24.2,228.9,24.2z"/>
<path class="st0" d="M28,2.6c-0.1-0.1-0.4-0.1-0.5,0L8,12.6c-1,0.6-2.2,0.6-3.3,0.2l-1.5-0.6C3,12.1,2.8,12,2.8,11.7
	c0-0.2,0.1-0.4,0.3-0.5l18.5-9.5c0.2-0.1,0.3-0.3,0.3-0.4V0.5c0-0.2-0.1-0.3-0.2-0.4c-0.1-0.1-0.3-0.1-0.5,0L1.3,10.3
	C0.5,10.7,0,11.5,0,12.4v30.2c0,1.5,0.9,2.9,2.4,3.5l1.5,0.6c2.4,0.9,4.3,0,5-0.3c0,0,5.1-2.6,18.5-9.5c0.6-0.3,1-0.9,1-1.6
	c0-2.3,0-9.5,0-32.2C28.3,2.9,28.2,2.7,28,2.6z M14.6,14.4c0-0.6,0.4-1.2,0.9-1.5l3.5-1.8c0.3-0.1,0.6-0.1,0.9,0s0.4,0.4,0.4,0.8
	v14.8c0,0.6-0.3,1.1-0.9,1.4l-3.5,1.8c-0.3,0.1-0.7,0.1-0.9,0c-0.3-0.2-0.5-0.5-0.5-0.8V14.4z M17.4,37.7c-1.8,0.9-3.2,0.3-3.2-1.6
	c0-1.8,1.4-4,3.2-4.9c1.8-0.9,3.2-0.3,3.2,1.6S19.3,36.7,17.4,37.7z"/>
<path class="st0" d="M4.1,11.7C4.1,11.7,4.1,11.7,4.1,11.7l18.2-9.1c0.1,0,0.1-0.1,0.1-0.2c0-0.1-0.1-0.1-0.1-0.1s-0.1,0-0.1,0
	L4,11.5c-0.1,0-0.1,0.1-0.1,0.2C4,11.7,4,11.7,4.1,11.7z"/>
<path class="st0" d="M23.3,3c0-0.1-0.1-0.1-0.1-0.1s-0.1,0-0.1,0L5,12C5,12,4.9,12.1,5,12.2c0,0.1,0.1,0.1,0.1,0.1s0.1,0,0.1,0
	l18.1-9.1C23.3,3.1,23.4,3,23.3,3z"/>
<path class="st0" d="M6.2,12.7C6.2,12.7,6.3,12.7,6.2,12.7l18.2-9.1c0.1,0,0.1-0.1,0.1-0.2c0-0.1-0.1-0.1-0.1-0.1s-0.1,0-0.1,0
	L6.2,12.4c-0.1,0-0.1,0.1-0.1,0.2C6.1,12.6,6.2,12.7,6.2,12.7z"/>
</svg>
