<svg xmlns="http://www.w3.org/2000/svg" viewBox="0 0 571.46 370.28"><defs><style>.cls-1{fill:#202938;}</style></defs><title>past-factory-icon-color</title><g id="Layer_2" data-name="Layer 2"><g id="Isolation_Mode" data-name="Isolation Mode"><path class="cls-1" d="M560.8,162.6c8.71-19,12.71-40.19,9.62-60.77-8.84-58.81-68.73-83.45-120.29-94A473.36,473.36,0,0,0,390.36,0C250.24,0,143.22,44.58,124.06,110.94c-4.22,14.6-1.52,27.64,7.58,36.73,8.73,8.73,22.58,13.34,40,13.34,38.78,0,74.08-21.3,97.43-46.37a4.41,4.41,0,0,0-3.69-7.39c-1.76.16-3.53.24-5.3.24-8.83,0-16.52-2.82-21.65-7.95a20.07,20.07,0,0,1-5.17-20.3C243.62,43.47,306.18,17.5,382,17.5c15.57,0,37.42,1.42,52.06,5.39l9.46,2.56-7.75,5c-53.95,34.89-100.05,85.46-140.72,130.07C241.88,218.89,195.93,269.3,147.25,269.3c-10.25,0-19.07-3.18-24.84-8.93-5.94-5.94-7.88-13.82-5.46-22.19a28.49,28.49,0,0,1,4.78-9.15,4.42,4.42,0,0,0-3.32-7.18h-1.3c-53.23,0-102.38,31.22-114.34,72.63-6.07,21-2.12,39.29,11.41,52.8,14.85,14.84,40.13,23,71.18,23,86.8,0,159.35-54.62,235.24-177.08,36.77-59.68,85.95-119.47,131.55-159.94L455,30.7l3.81,1.61c41.3,17.32,57.68,48.9,46.12,88.92-8.65,30-34.53,50.87-62.94,50.87-10.88,0-19.95-3.09-26.24-8.93a25.25,25.25,0,0,1-7.32-12,4.47,4.47,0,0,0-6.19-3c-30.35,13.86-63.14,50.68-40.08,84.55,13.06,19.19,38.51,22,59.88,22,54.24-4.46,107.11-35.11,134.06-83.05Q558.65,167.26,560.8,162.6Z"/></g></g></svg>