<?xml version="1.0" encoding="UTF-8"?>
<svg id="Layer_1" data-name="Layer 1" xmlns="http://www.w3.org/2000/svg" viewBox="0 0 1000 1000">
  <defs>
    <style>
      .cls-1 {
        fill: #ffd639;
      }

      .cls-2 {
        fill: #14ff52;
      }
    </style>
  </defs>
  <path d="m852.89,771.04l-101.79-172.48c-14.11-24.89-35.29-45.35-61.09-58.9-11.89-5.65-24.44-9.88-37.41-12.55v-175.95c-.14-87.85-73.64-159.03-164.37-159.17h-171.75c-95.44,0-172.79,74.89-172.79,167.31v29.82c0,13.59,11.41,24.61,25.45,24.61h27.74c10.89,61.95,60.98,110.46,124.95,121v104.98c0,92.95,77.8,168.28,173.8,168.28h335.11c9.12.03,17.58-4.68,22.15-12.31,4.54-7.63,4.54-17.02,0-24.65ZM321.83,484.23c-35.64-9.01-63.48-35.95-72.77-70.48h72.77v70.48Zm0-119.75h-127.24v-5.16c.14-65.14,54.64-117.91,121.9-118.05h5.34v123.21Zm173.8,394.26c-67.81-.14-122.76-53.36-122.9-119.02V241.26h115.76c62.68,0,113.51,49.23,113.51,109.9v172.48c-38.24,1.8-73.71,19.83-96.97,49.3-45.04,58.62-10.16,132.78-2.29,147.83,7.38,13.97,16.92,26.77,28.26,37.96h-35.36Zm49.85-157.95h.52c25.69-34.01,82.96-36.47,119.61-16.5,3.54,1.94,6.34,3.92,9.4,5.89-3.15,8.63-7.25,16.88-12.2,24.65-29.02,38.14-73.26,62.72-121.9,67.74-12.38-26.35-10.68-56.89,4.58-81.78Zm84.73,157.95c-22.12-5.51-42.5-16.26-59.28-31.31,55.09-10.4,103.73-41.39,135.38-86.26,2.05-3.19,3.57-6.66,5.34-10.09l75.34,127.65h-156.77Z"/>
  <path class="cls-1" d="m321.83,413.74v70.48c-35.64-9.01-63.48-35.95-72.77-70.48h72.77Z"/>
  <path class="cls-1" d="m321.83,241.26v123.21h-127.24v-5.16c.14-65.14,54.64-117.91,121.9-118.05h5.34Z"/>
  <path class="cls-2" d="m786.99,758.74h-156.77c-22.12-5.51-42.5-16.26-59.28-31.31,55.09-10.4,103.73-41.39,135.38-86.26,2.05-3.19,3.57-6.66,5.34-10.09l75.34,127.65Z"/>
  <path class="cls-2" d="m675,590.17c-3.15,8.63-7.25,16.88-12.2,24.65-29.02,38.14-73.26,62.72-121.9,67.74-12.38-26.35-10.68-56.89,4.58-81.78h.52c25.69-34.01,82.96-36.47,119.61-16.5,3.54,1.94,6.34,3.92,9.4,5.89Z"/>
  <path class="cls-2" d="m601.99,523.64v-172.48c0-60.67-50.82-109.9-113.51-109.9h-115.76v398.45c.14,65.66,55.09,118.88,122.9,119.02h35.36c-11.34-11.2-20.87-23.99-28.26-37.96-7.87-15.05-42.75-89.2,2.29-147.83,23.26-29.47,58.73-47.5,96.97-49.3Zm-152.93-183.82c-14.08,0-25.45-11.03-25.45-24.62,0-6.79,2.84-12.97,7.45-17.44,4.61-4.47,10.96-7.21,17.99-7.21,14.04,0,25.45,11.03,25.45,24.65s-11.41,24.62-25.45,24.62Z"/>
  <path d="m474.51,315.21c0,13.59-11.41,24.62-25.45,24.62s-25.45-11.03-25.45-24.62c0-6.79,2.84-12.97,7.45-17.44,4.61-4.47,10.96-7.21,17.99-7.21,14.04,0,25.45,11.03,25.45,24.65Z"/>
</svg>