<svg xmlns="http://www.w3.org/2000/svg" viewBox="0 0 73.97 88.39"><defs><style>.cls-1{fill:#c6a15a;}</style></defs><title>the-mystique-header-shield-only</title><g id="Layer_2" data-name="Layer 2"><g id="Isolation_Mode" data-name="Isolation Mode"><path class="cls-1" d="M45.89,35.84a5.1,5.1,0,0,0-1.4-.11,3.86,3.86,0,0,0-.49.06.49.49,0,0,0,.13,1,10,10,0,0,0,1.77-.21l.1,0,0,0A.35.35,0,0,0,45.89,35.84Z"/><path class="cls-1" d="M29.83,35.72l-.26,0a5.72,5.72,0,0,0-1.53.12.4.4,0,0,0-.16.7h0a.31.31,0,0,0,.13.06,13.52,13.52,0,0,0,1.7.2A.53.53,0,0,0,29.83,35.72Z"/><path class="cls-1" d="M39.62,53.16a.28.28,0,0,0,.35-.09.73.73,0,0,0,.09-.18A.43.43,0,0,0,40,52.7a4.08,4.08,0,0,0-2.87-.83h-.42A3.92,3.92,0,0,0,34,52.7a.43.43,0,0,0-.11.19,1.12,1.12,0,0,0,.08.18.28.28,0,0,0,.35.09,3.65,3.65,0,0,1,2.34-.24h.62a3.74,3.74,0,0,1,.81-.1A3.54,3.54,0,0,1,39.62,53.16Z"/><path class="cls-1" d="M5.33,0V52.46c0,5.6,5.23,12.43,15.14,19.74A126.46,126.46,0,0,0,37,82.39,127.94,127.94,0,0,0,53.5,72.19c9.9-7.32,15.14-14.14,15.14-19.73V0ZM64,31.55A.28.28,0,0,1,64,32l-1.24.86a.3.3,0,0,1-.38,0c-.84-.93-4-3.42-6.78-3.67a.29.29,0,0,1-.25-.3l.06-1.5a.28.28,0,0,1,.3-.27C59.24,27.34,63,30.31,64,31.55ZM46.44,16.43,51,7.16a.31.31,0,0,1,.09-.11L51.22,7c.76-.61,2.16-1.71,3.86-.6,2,1.32,2,5.16,1.67,8.16a28.92,28.92,0,0,1-1.83,7.54l-.23.49a.28.28,0,0,1-.29.16l-.54-.06a9.11,9.11,0,0,1-3.56-1.08l-.14-.07-.11-.1a2.88,2.88,0,0,1-.71-2.71,10.69,10.69,0,0,1,4.07-6.38.29.29,0,0,1,.4.15l.57,1.4a.28.28,0,0,1-.1.34A9.51,9.51,0,0,0,51.38,19a2,2,0,0,0,0,.65.29.29,0,0,0,.16.21,7,7,0,0,0,1.54.56.28.28,0,0,0,.33-.19,30.42,30.42,0,0,0,1.3-6c.48-4.18-.25-5.86-.75-6.19-.25-.16-.43-.27-1.22.32a.31.31,0,0,0-.09.11L48.3,17.34c-.09.19,0,.44.19.66a.29.29,0,0,1-.05.38l-1.13,1a.29.29,0,0,1-.42,0A2.65,2.65,0,0,1,46.44,16.43ZM18.89,6.36c1.7-1.12,3.1,0,3.86.6l.15.13.08.09.07.15,4.48,9.1a2.73,2.73,0,0,1-.63,3.12.3.3,0,0,1-.42,0L25.4,18.52a.29.29,0,0,1,0-.39c.2-.24.4-.56.29-.79L21.33,8.52a.31.31,0,0,0-.09-.11c-.79-.59-1-.48-1.22-.32-.5.33-1.23,2-.75,6.19a31.12,31.12,0,0,0,1.29,6,.3.3,0,0,0,.34.19,7,7,0,0,0,1.54-.56.31.31,0,0,0,.16-.21,1.83,1.83,0,0,0,0-.65,9.44,9.44,0,0,0-2.89-4.81.28.28,0,0,1-.1-.34l.57-1.4a.29.29,0,0,1,.4-.15,10.74,10.74,0,0,1,4.07,6.38,2.88,2.88,0,0,1-.71,2.71l-.11.1-.14.07a9.16,9.16,0,0,1-3.56,1.08l-.54.06a.28.28,0,0,1-.29-.16l-.23-.49a29.26,29.26,0,0,1-1.84-7.54C16.87,11.52,16.88,7.68,18.89,6.36ZM12.77,23.49l1.07-1a.29.29,0,0,1,.4,0,7.51,7.51,0,0,0,5.21,1.73l.83,0h.19a15.2,15.2,0,0,0,5.35-1.48l.07,0,.09-.05.07,0a11.34,11.34,0,0,0,1.39-.83c2.13-1.52,2.9-3.3,2.12-4.9L27.8,13.23a.29.29,0,0,1,.08-.35l1.21-1a.27.27,0,0,1,.35,0,25.51,25.51,0,0,0,7.35,4.06l.14,0h.14l.13,0a25.27,25.27,0,0,0,7.33-4,.27.27,0,0,1,.35,0l1.21,1a.31.31,0,0,1,.08.35l-1.76,3.56c-.78,1.6,0,3.38,2.12,4.9a12.77,12.77,0,0,0,1.39.84l.07,0,.09.05.07,0a15.32,15.32,0,0,0,5.35,1.48h.18l.84,0a7.51,7.51,0,0,0,5.21-1.73.29.29,0,0,1,.4,0l1.07,1a.3.3,0,0,1,0,.41,9.54,9.54,0,0,1-6.68,2.33l-.94,0-.28,0a17.46,17.46,0,0,1-6-1.67,2.29,2.29,0,0,1-.31-.16,12.39,12.39,0,0,1-1.62-1c-2.95-2.11-4-5-2.78-7.5l.12-.23a23.6,23.6,0,0,1-4.86,2.26l-.2.06-.12,0-.2,0h-.6l-.21,0h-.09l-.25-.07a23.71,23.71,0,0,1-4.84-2.26l.12.23c1.24,2.52.17,5.39-2.78,7.5a12.39,12.39,0,0,1-1.62,1,2.29,2.29,0,0,1-.31.16,17.34,17.34,0,0,1-6,1.67l-.28,0-.94,0a9.54,9.54,0,0,1-6.68-2.33A.3.3,0,0,1,12.77,23.49ZM37.48,58.82h-1l-3.7,1.12a.36.36,0,0,1-.23,0l-.27-.16a9.78,9.78,0,0,1-4.7-6.46.28.28,0,0,1,.23-.34l1.48-.25a.29.29,0,0,1,.33.23,7.6,7.6,0,0,0,3.2,4.72.29.29,0,0,0,.24,0l2.6-.79a.3.3,0,0,0,.21-.27V55.22a.3.3,0,0,0-.34-.29,1.38,1.38,0,0,0-.57.26,1.23,1.23,0,0,1-.86.35,1.24,1.24,0,0,1-.69-.21,3.44,3.44,0,0,1-1.56-2.13,2.24,2.24,0,0,1,.64-1.9c1.44-1.55,3.9-1.53,4.47-1.5h0c.58,0,3,0,4.47,1.5a2.24,2.24,0,0,1,.64,1.9,3.43,3.43,0,0,1-1.53,2.12A1.25,1.25,0,0,1,39,55.2a1.51,1.51,0,0,0-.91-.3H38v1.67a.29.29,0,0,0,.2.28l2.75.83a.26.26,0,0,0,.24,0,7.63,7.63,0,0,0,3.2-4.71.28.28,0,0,1,.33-.23l1.48.25a.28.28,0,0,1,.23.34,9.86,9.86,0,0,1-4.69,6.46l-.28.16a.36.36,0,0,1-.23,0Zm2.93,3.42a6,6,0,0,1-6.85,0,.28.28,0,0,1-.07-.41l.89-1.2a.28.28,0,0,1,.39-.07,4,4,0,0,0,4.43,0,.26.26,0,0,1,.38.07l.9,1.2A.3.3,0,0,1,40.41,62.24ZM32.67,38.48l-1.49.2c-.15,0-.32-.25-.32-.25a.51.51,0,0,1-.32.18h-.36a7.72,7.72,0,0,1-2.66-.36A4.39,4.39,0,0,1,26,36.78a.29.29,0,0,0-.3-.13,12.39,12.39,0,0,1-1.89.22.28.28,0,0,1-.29-.28v-1.5a.29.29,0,0,1,.28-.29,14.25,14.25,0,0,0,3-.53,8.5,8.5,0,0,1,2.7-.4c2.28.2,2.94,1.83,3.24,3.25a1.59,1.59,0,0,1,.08.39c0,.2.07.41.1.65A.27.27,0,0,1,32.67,38.48Zm1.48,3.43a.28.28,0,0,1,.3.26l.47,5.75a.29.29,0,0,1-.27.31l-1.49.12a.28.28,0,0,1-.31-.26l-.46-5.75a.28.28,0,0,1,.26-.31ZM25.7,45.35v0c.15,1.74.36,4.12.88,4.54l1.08.87a.3.3,0,0,1,0,.41l-.95,1.16a.29.29,0,0,1-.4,0l-1.08-.87c-1.2-1-1.39-3.18-1.63-6v0Zm13.4,2.57.46-5.75a.28.28,0,0,1,.31-.26l1.49.12a.29.29,0,0,1,.27.31l-.47,5.75a.28.28,0,0,1-.3.26l-1.5-.12A.28.28,0,0,1,39.1,47.92Zm7.17,3.3a.3.3,0,0,1,0-.41l1.08-.87c.52-.42.72-2.8.87-4.54v0l2.06.18v0c-.24,2.79-.43,5-1.63,6l-1.08.87a.29.29,0,0,1-.4,0Zm3.87-14.35a11.29,11.29,0,0,1-2-.24.26.26,0,0,0-.31.15,3.46,3.46,0,0,1-1.39,1.48,6.12,6.12,0,0,1-2.35.36,6.46,6.46,0,0,1-1-.06.31.31,0,0,1-.25.15l-1.54-.23a.27.27,0,0,1-.24-.32c0-.24.06-.45.1-.65a1.35,1.35,0,0,1,.08-.4c.3-1.41,1-3,3.24-3.24a8.54,8.54,0,0,1,2.7.4,14.25,14.25,0,0,0,3,.53.29.29,0,0,1,.28.29v1.5A.28.28,0,0,1,50.14,36.87Zm-5.37-6.66C41.55,31.63,40.44,35,40,36.42l0,.06-1.75.06a.28.28,0,0,1-.27-.18l-.68-1.68a.29.29,0,0,0-.53,0L36,36.36a.28.28,0,0,1-.27.18L34,36.48l0-.06c-.47-1.44-1.58-4.79-4.8-6.21a11,11,0,0,0-7.34-.37l-.32.09a.3.3,0,0,1-.36-.2l-.38-1.45a.29.29,0,0,1,.2-.35l.32-.09a13.08,13.08,0,0,1,8.72.47,10,10,0,0,1,4.7,4.49.28.28,0,0,0,.51,0l.7-1.72a.29.29,0,0,1,.27-.18h1.53a.29.29,0,0,1,.27.18l.69,1.72a.29.29,0,0,0,.52,0,10,10,0,0,1,4.7-4.49,13.08,13.08,0,0,1,8.72-.47l.32.09a.29.29,0,0,1,.2.35l-.39,1.45a.28.28,0,0,1-.35.2l-.32-.09A11,11,0,0,0,44.77,30.21ZM10,31.55c1.07-1.24,4.78-4.21,8.34-4.5a.28.28,0,0,1,.3.27l.06,1.5a.29.29,0,0,1-.25.3c-2.8.25-5.94,2.74-6.78,3.67a.3.3,0,0,1-.38,0L10,32A.28.28,0,0,1,10,31.55Zm-.08,9.06-1.3-.75a.29.29,0,0,1-.11-.4,18,18,0,0,1,8.72-7.15.28.28,0,0,1,.37.17l.52,1.4a.29.29,0,0,1-.16.37,16.14,16.14,0,0,0-7.66,6.26A.28.28,0,0,1,9.87,40.61ZM21,60.82l-1,1.12a.29.29,0,0,1-.41,0,18.52,18.52,0,0,1-4.85-9.43,16.09,16.09,0,0,1,.52-9.24.28.28,0,0,0-.44-.33,7.71,7.71,0,0,0-2.46,4.43.28.28,0,0,1-.33.23l-1.48-.26a.28.28,0,0,1-.23-.33c.64-3.18,2.68-6.44,5.92-6.84h.15a1.64,1.64,0,0,1,1.49,2.52c-3.14,4.95-.89,13.9,3.11,17.73A.27.27,0,0,1,21,60.82Zm.3-11.92L20,47.32c-.56-.7-.81-1.93-.84-4.12a89.69,89.69,0,0,1,.73-10.3.28.28,0,0,1,.32-.25l1.49.17a.29.29,0,0,1,.25.32,87.64,87.64,0,0,0-.72,10c0,2.33.35,2.79.39,2.84l1.27,1.58a.3.3,0,0,1,0,.41L21.65,49A.29.29,0,0,1,21.25,48.9ZM31.58,70.84l-.72,1.31a.28.28,0,0,1-.39.11,17.23,17.23,0,0,1-7.2-7.13,17,17,0,0,1-1.4-10,.27.27,0,0,1,.32-.24l1.49.2a.3.3,0,0,1,.24.33C23,62.24,25.44,67,31.47,70.45A.28.28,0,0,1,31.58,70.84Zm6.86,3.69-1.46,0-1.46,0a.29.29,0,0,1-.29-.28c-.24-4.92-4.8-8.62-6.55-9.87a.29.29,0,0,1-.07-.4l.85-1.23a.28.28,0,0,1,.4-.07c1.61,1.14,5.39,4.19,6.86,8.48a.28.28,0,0,0,.53,0c1.47-4.29,5.25-7.34,6.86-8.48a.28.28,0,0,1,.4.07L45.36,64a.29.29,0,0,1-.07.4c-1.75,1.25-6.31,5-6.56,9.87A.28.28,0,0,1,38.44,74.53Zm12.26-9.4a17.23,17.23,0,0,1-7.2,7.13.28.28,0,0,1-.39-.11l-.73-1.31a.3.3,0,0,1,.12-.39c6-3.42,8.44-8.21,7.55-15.05a.3.3,0,0,1,.24-.33l1.49-.2a.27.27,0,0,1,.32.24A17,17,0,0,1,50.7,65.13ZM52.32,49,51.15,48a.3.3,0,0,1,0-.41L52.38,46c0-.05.36-.51.39-2.84A88.19,88.19,0,0,0,52,32.92a.28.28,0,0,1,.25-.32l1.49-.17a.27.27,0,0,1,.31.25,90.72,90.72,0,0,1,.76,10.52c0,2.19-.28,3.42-.84,4.12L52.72,48.9A.29.29,0,0,1,52.32,49Zm11.15-1.59L62,47.62a.28.28,0,0,1-.33-.23A7.71,7.71,0,0,0,59.2,43a.28.28,0,0,0-.44.33,16.18,16.18,0,0,1,.52,9.24A18.52,18.52,0,0,1,54.43,62a.29.29,0,0,1-.41,0l-1-1.12a.27.27,0,0,1,0-.39c4-3.83,6.25-12.78,3.11-17.73a1.64,1.64,0,0,1,1.49-2.52h.21l.06,0c3.16.46,5.17,3.68,5.8,6.82A.29.29,0,0,1,63.47,47.36Zm1.93-7.5-1.3.75a.28.28,0,0,1-.38-.1,16.14,16.14,0,0,0-7.66-6.26.29.29,0,0,1-.16-.37l.52-1.4a.28.28,0,0,1,.37-.17,18,18,0,0,1,8.72,7.15A.29.29,0,0,1,65.4,39.86Z"/><path class="cls-1" d="M70.88,0V52.46c0,15.36-31.53,31.27-33.77,32.38a.28.28,0,0,1-.13,0,.27.27,0,0,1-.12,0c-2.24-1.11-33.77-17-33.77-32.38V0H0V52.46c0,7.46,5.82,15.55,17.3,24A131.25,131.25,0,0,0,34.55,87.13L37,88.39l2.43-1.26A132.77,132.77,0,0,0,56.67,76.48C68.15,68,74,59.91,74,52.46V0Z"/></g></g></svg>